<?xml version="1.0" standalone="no"?>
<!DOCTYPE svg PUBLIC "-//W3C//DTD SVG 20010904//EN"
 "http://www.w3.org/TR/2001/REC-SVG-20010904/DTD/svg10.dtd">
<svg version="1.0" xmlns="http://www.w3.org/2000/svg"
 width="1772.000000pt" height="1772.000000pt" viewBox="0 0 1772.000000 1772.000000"
 preserveAspectRatio="xMidYMid meet">

<g transform="translate(0.000000,1772.000000) scale(0.100000,-0.100000)"
fill="#000000" stroke="none">
<path d="M8736 14263 c-74 -225 -135 -452 -168 -628 -21 -110 -23 -149 -23
-475 0 -195 4 -472 9 -615 l8 -260 -89 135 c-290 437 -612 732 -1018 930 -360
176 -797 268 -1224 258 l-134 -3 149 -64 c734 -316 1321 -716 1904 -1301 156
-156 309 -335 296 -347 -2 -2 -39 21 -82 52 -97 70 -311 198 -431 258 -386
194 -821 318 -1262 358 -195 17 -595 7 -776 -21 -286 -43 -548 -117 -770 -217
-102 -45 -261 -132 -253 -137 2 -2 64 3 138 11 207 20 742 28 975 14 710 -42
1387 -177 2163 -432 227 -75 292 -101 197 -79 -22 5 -103 21 -180 35 -442 78
-940 80 -1382 5 -913 -156 -1543 -526 -1975 -1158 -38 -57 -68 -105 -66 -106
1 -2 62 30 133 71 160 93 503 261 690 341 580 245 1176 413 1898 532 236 39
877 123 884 116 9 -8 -135 -58 -208 -72 -251 -47 -706 -236 -998 -413 -271
-165 -579 -427 -748 -636 -204 -253 -343 -541 -402 -831 -39 -192 -49 -439
-23 -563 8 -35 8 -34 74 86 343 627 860 1193 1528 1674 125 90 793 528 799
523 10 -9 -171 -191 -330 -331 -191 -168 -238 -224 -286 -345 -22 -53 -25 -73
-21 -139 5 -92 50 -195 99 -230 29 -20 35 -21 84 -10 157 35 232 206 224 516
l-3 112 138 172 c76 95 140 170 142 168 7 -6 -30 -195 -119 -607 -116 -538
-130 -608 -122 -637 3 -13 26 -69 51 -122 l45 -98 -60 -549 c-98 -888 -98
-865 -11 -953 27 -26 52 -60 55 -74 4 -14 -19 -252 -50 -528 -31 -275 -55
-502 -53 -504 2 -2 239 -108 295 -132 8 -3 12 55 15 219 5 258 15 299 94 387
67 74 156 115 249 115 93 0 182 -41 249 -115 80 -89 90 -129 94 -387 3 -165 7
-222 15 -219 55 23 293 130 295 132 2 2 -22 229 -53 504 -31 276 -54 514 -50
528 3 14 28 48 55 74 87 88 87 65 -11 953 l-60 549 45 98 c25 53 48 109 51
122 7 28 -15 144 -120 632 -91 419 -128 605 -122 611 3 3 67 -72 142 -167
l138 -171 -2 -113 c-5 -249 47 -425 144 -485 17 -11 54 -25 82 -31 47 -11 53
-10 81 10 18 12 45 50 64 89 30 60 33 75 33 157 0 73 -5 100 -23 140 -52 114
-98 167 -281 328 -159 140 -340 322 -330 331 6 5 676 -434 799 -523 668 -481
1185 -1047 1528 -1674 66 -120 66 -120 74 -86 26 127 16 371 -23 564 -57 285
-200 579 -402 830 -169 209 -477 471 -748 636 -292 177 -747 366 -998 413 -73
14 -217 64 -208 72 7 7 648 -77 884 -116 722 -119 1316 -286 1898 -532 183
-78 526 -247 690 -341 72 -41 132 -73 133 -72 6 5 -94 151 -167 245 -465 601
-1172 949 -2144 1057 -206 22 -607 22 -817 -1 -141 -15 -376 -53 -475 -76 -95
-22 -30 4 197 79 776 255 1453 390 2163 432 233 14 768 6 975 -14 74 -8 136
-13 138 -11 8 5 -151 92 -253 137 -222 100 -484 174 -770 217 -181 28 -581 38
-776 21 -438 -40 -873 -163 -1250 -351 -130 -66 -342 -192 -443 -265 -43 -31
-80 -54 -82 -52 -8 8 99 143 196 248 188 203 543 519 805 716 334 251 768 499
1199 684 l149 64 -134 3 c-239 6 -529 -27 -760 -87 -442 -115 -811 -329 -1129
-657 -136 -140 -229 -258 -353 -444 l-89 -135 8 260 c5 143 9 420 9 615 0 398
-5 438 -85 745 -37 144 -167 555 -175 555 -2 0 -33 -89 -69 -197z"/>
<path d="M12978 11167 c-214 -128 -388 -234 -388 -238 0 -3 33 -43 73 -90 39
-46 101 -124 135 -172 l64 -88 46 27 c57 33 686 406 690 410 6 4 -219 384
-227 383 -3 0 -180 -104 -393 -232z"/>
<path d="M4207 11258 c-126 -227 -177 -322 -177 -327 1 -3 156 -93 347 -200
270 -152 347 -191 353 -180 23 40 141 199 198 265 35 42 60 79 56 84 -5 4
-171 98 -369 210 -198 111 -363 204 -367 206 -4 3 -22 -24 -41 -58z"/>
<path d="M11842 10491 c-227 -137 -418 -253 -424 -259 -7 -7 -5 -19 10 -39 27
-39 99 -183 138 -278 18 -44 37 -80 41 -80 13 0 1113 657 1113 664 0 12 -454
247 -464 240 0 0 -187 -112 -414 -248z"/>
<path d="M5138 10636 c-90 -46 -194 -102 -232 -124 l-68 -40 43 -25 c24 -14
287 -163 583 -331 l540 -305 31 82 c17 45 59 136 93 201 34 66 59 123 55 127
-7 6 -799 455 -860 488 -20 10 -42 2 -185 -73z"/>
<path d="M10195 9509 c-396 -237 -723 -433 -727 -437 -4 -4 5 -116 19 -249
l27 -242 40 25 c23 13 402 239 843 502 441 262 802 480 803 484 0 10 -186 241
-241 300 l-44 47 -720 -430z"/>
<path d="M6628 9868 c-95 -109 -219 -270 -216 -280 4 -11 1679 -960 1685 -954
2 2 16 108 30 236 22 198 24 233 12 244 -19 18 -1435 816 -1447 816 -5 0 -34
-28 -64 -62z"/>
<path d="M9502 8296 c-7 -18 -32 -52 -57 -74 -43 -39 -45 -43 -44 -94 0 -29 6
-98 12 -152 l12 -99 1213 -685 c666 -377 1212 -689 1212 -694 0 -4 -54 -109
-121 -232 -68 -127 -118 -230 -114 -237 11 -17 275 -188 405 -261 152 -86 259
-140 405 -204 l120 -52 16 27 c8 14 132 238 274 496 141 259 294 534 337 613
44 79 78 145 75 148 -3 3 -108 56 -234 118 -248 123 -431 228 -587 339 -94 67
-100 69 -113 51 -8 -10 -73 -124 -145 -251 -71 -128 -132 -233 -134 -233 -3 0
4 17 15 38 l19 38 -1268 717 c-698 394 -1272 717 -1277 717 -5 0 -14 -15 -21
-34z m2508 -1526 c-6 -11 -13 -20 -16 -20 -2 0 0 9 6 20 6 11 13 20 16 20 2 0
0 -9 -6 -20z"/>
<path d="M6925 7558 c-655 -390 -1202 -715 -1217 -723 l-26 -15 -297 510
c-226 390 -305 517 -333 538 -30 23 -45 27 -101 27 -60 0 -73 -4 -143 -45 -53
-30 -76 -50 -73 -59 3 -8 339 -587 747 -1288 l741 -1273 58 31 c107 57 159
126 159 209 0 51 16 21 -282 533 -138 236 -248 430 -246 432 1 2 507 303 1123
670 616 367 1125 671 1131 676 13 11 49 357 41 390 -4 13 -26 40 -50 60 l-43
37 -1189 -710z"/>
<path d="M12665 7944 c-74 -40 -126 -116 -104 -152 10 -15 4 -33 -31 -101 -41
-79 -42 -82 -24 -97 55 -43 373 -250 464 -302 217 -123 427 -219 444 -202 5 5
26 40 46 78 26 49 44 71 67 81 25 11 38 29 62 81 30 67 30 67 13 115 -29 80
-137 156 -557 391 -193 107 -316 142 -380 108z"/>
<path d="M4198 7657 c-196 -34 -360 -65 -363 -69 -8 -8 1745 -3028 1757 -3028
11 0 478 572 478 586 0 6 -32 66 -71 133 -63 106 -74 120 -88 109 -9 -7 -59
-48 -111 -92 -144 -120 -135 -114 -124 -95 5 8 51 75 102 147 51 73 92 138 90
145 -7 29 -144 257 -154 257 -6 0 -21 -12 -35 -26 -13 -14 -68 -67 -122 -116
l-97 -90 33 78 c19 44 50 111 69 149 74 147 73 171 -5 293 -30 45 -62 100 -72
122 -10 22 -22 40 -27 40 -4 0 -65 -45 -135 -100 -70 -55 -128 -98 -130 -96
-2 1 37 77 87 167 49 90 90 170 90 177 0 10 -129 240 -146 261 -2 2 -71 -28
-154 -67 -82 -39 -150 -68 -150 -64 0 4 52 59 115 122 63 63 115 120 115 126
0 14 -126 233 -146 254 -13 13 -27 11 -126 -24 -61 -21 -132 -45 -157 -52
l-46 -14 40 37 c135 123 195 186 195 203 0 23 -129 250 -145 256 -9 4 -107
-15 -315 -62 -29 -6 -6 12 147 114 50 34 94 65 96 69 3 5 -20 51 -50 103 -52
87 -70 111 -83 109 -3 -1 -166 -29 -362 -62z"/>
<path d="M8725 7584 c-43 -22 -84 -63 -108 -109 -21 -37 -22 -56 -25 -281 l-3
-241 104 -46 c57 -26 108 -47 112 -47 4 0 55 21 112 47 l105 46 -4 246 c-3
229 -4 249 -25 286 -27 50 -58 80 -105 100 -48 19 -125 19 -163 -1z"/>
<path d="M8664 6301 c-358 -102 -526 -480 -361 -811 66 -134 232 -259 384
-290 84 -18 234 -8 308 20 225 85 375 299 375 535 0 256 -181 484 -436 549
-80 21 -193 19 -270 -3z"/>
<path d="M11432 5748 c-10 -18 -30 -52 -42 -75 -16 -30 -29 -42 -43 -40 -25 3
-87 -103 -87 -149 0 -43 50 -116 116 -167 53 -43 418 -250 604 -345 76 -39 93
-43 153 -43 109 0 177 55 177 145 0 31 10 66 32 110 18 36 30 67 27 69 -2 1
-67 32 -143 67 -242 112 -556 296 -733 429 l-41 31 -20 -32z"/>
<path d="M7811 4483 c-50 -26 -74 -64 -74 -116 0 -62 29 -99 122 -152 42 -24
87 -56 100 -69 49 -52 16 -116 -59 -116 -47 0 -97 34 -123 83 -10 20 -26 37
-34 37 -12 0 -14 -11 -8 -62 10 -100 1 -93 126 -96 129 -4 166 6 209 54 25 29
30 43 30 87 0 68 -28 110 -105 157 -161 98 -174 113 -139 151 37 41 136 12
172 -51 9 -17 25 -30 36 -30 16 0 18 5 12 38 -3 20 -6 51 -6 67 l0 30 -113 3
c-91 2 -118 -1 -146 -15z"/>
<path d="M8160 4475 c0 -11 -3 -44 -6 -72 -6 -49 -5 -53 13 -53 16 0 22 9 27
35 8 43 30 55 100 55 l56 0 0 -189 c0 -201 -1 -206 -50 -213 -14 -1 -26 -11
-28 -20 -3 -17 9 -18 147 -18 127 0 151 2 151 15 0 8 -12 17 -27 21 -16 3 -33
7 -39 9 -18 5 -24 59 -24 231 l0 164 64 0 c72 0 93 -13 103 -61 4 -20 11 -29
26 -29 17 0 19 5 13 31 -3 17 -6 50 -6 73 l0 41 -260 0 c-253 0 -260 -1 -260
-20z"/>
<path d="M9195 4464 c-22 -20 -57 -45 -77 -55 -21 -11 -38 -26 -38 -34 0 -19
12 -19 56 0 l34 14 -2 -177 -3 -177 -32 -3 c-21 -2 -33 -9 -33 -18 0 -11 24
-14 135 -14 113 0 135 2 135 15 0 10 -10 15 -28 15 -51 0 -52 7 -52 247 l0
223 -27 0 c-17 -1 -43 -15 -68 -36z"/>
<path d="M9544 4486 c-95 -42 -115 -226 -31 -281 26 -17 89 -22 125 -10 58 18
-9 -105 -82 -151 -45 -29 -54 -46 -24 -52 31 -6 128 40 170 81 131 127 126
346 -9 416 -29 15 -111 13 -149 -3z m129 -77 c12 -46 3 -159 -14 -170 -24 -15
-58 -10 -69 10 -5 11 -10 56 -10 100 0 69 3 84 21 102 18 18 23 19 42 6 12 -8
25 -29 30 -48z"/>
<path d="M10433 4493 l-102 -4 -5 -52 c-11 -102 -11 -207 -1 -211 5 -2 31 -1
57 2 41 4 49 2 72 -23 39 -42 39 -125 1 -164 -28 -29 -57 -22 -82 20 -31 51
-93 48 -93 -6 0 -43 34 -60 124 -60 75 0 86 3 119 28 49 37 71 81 71 142 1
102 -82 173 -188 162 l-51 -5 3 39 4 39 93 0 c88 0 93 1 99 23 10 38 7 77 -6
75 -7 -1 -59 -4 -115 -5z"/>
<path d="M7200 4470 c0 -16 7 -20 30 -20 19 0 33 -7 40 -19 6 -11 10 -90 10
-186 0 -172 -6 -205 -40 -205 -29 0 -50 -11 -50 -26 0 -12 42 -14 245 -14
l245 0 0 49 c0 27 3 56 6 65 4 11 0 16 -13 16 -12 0 -25 -13 -36 -35 -20 -42
-37 -47 -142 -43 l-80 3 -3 83 -3 82 76 0 c74 0 76 -1 93 -30 30 -53 42 -38
42 55 0 67 -3 85 -14 85 -8 0 -21 -12 -28 -27 -13 -27 -17 -28 -91 -31 l-77
-3 0 86 0 85 94 0 c97 0 110 -5 118 -45 2 -11 11 -21 21 -23 14 -3 17 4 17 41
0 82 15 77 -236 77 -217 0 -224 -1 -224 -20z"/>
<path d="M9876 4438 c-9 -81 -8 -98 9 -98 8 0 15 7 15 15 0 8 9 19 19 25 27
14 181 13 181 -1 0 -6 -36 -94 -80 -195 -44 -102 -80 -187 -80 -189 0 -3 21
-5 48 -5 l47 0 88 233 c48 127 87 240 87 250 0 15 -15 17 -164 17 l-163 0 -7
-52z"/>
<path d="M8675 4095 c-14 -13 -25 -31 -25 -40 0 -26 46 -65 77 -65 44 0 73 26
73 65 0 63 -78 88 -125 40z"/>
</g>
</svg>
